# xmcd CD database file
# Copyright (C) 1996 Ti Kan
#
# Track frame offsets:
# 	150
# 	12605
# 	35840
# 	103725
# 	124667
# 	151087
# 	210295
# 	226267
# 	241530
# 	293802
#
# Disc length: 4333 seconds
#
# Revision: 1
# Processed by: cddbd v1.4PL0 Copyright (c) Steve Scherf et al.
# Submitted via: DiscPlay 3.4.1
#
DISCID=7a10eb0a
DTITLE=Stevie Ray Vaughan - Tokyo '85
DYEAR=1985
DGENRE=Blues
TTITLE0=Scuttle Buttin'
TTITLE1=Say What
TTITLE2=Voodoo Chile
TTITLE3=Cold Shot
TTITLE4=Couldn't Stand The Weather
TTITLE5=Tin Pan Alley (Dirty Pool)
TTITLE6=Mary Had A Little Lamb
TTITLE7=Love Struck Baby
TTITLE8=Texas Flood
TTITLE9=Lenny
EXTD=
EXTT0=
EXTT1=
EXTT2=
EXTT3=
EXTT4=
EXTT5=
EXTT6=
EXTT7=
EXTT8=
EXTT9=
PLAYORDER=
